<?xml version="1.0" standalone="no"?>
<!DOCTYPE svg PUBLIC "-//W3C//DTD SVG 20010904//EN"
 "http://www.w3.org/TR/2001/REC-SVG-20010904/DTD/svg10.dtd">
<svg version="1.0" xmlns="http://www.w3.org/2000/svg"
 width="498.000000pt" height="485.000000pt" viewBox="0 0 498.000000 485.000000"
 preserveAspectRatio="xMidYMid meet">

<g transform="translate(0.000000,485.000000) scale(0.100000,-0.100000)"
fill="#000000" stroke="none">
<path d="M2185 4708 c-511 -65 -974 -289 -1336 -648 -156 -154 -258 -284 -366
-465 -162 -273 -247 -519 -304 -880 -17 -104 -17 -485 -1 -590 60 -383 176
-693 366 -975 285 -425 686 -738 1152 -901 103 -36 289 -84 379 -98 183 -28
225 -31 382 -31 709 0 1352 306 1799 855 180 222 341 529 418 797 21 72 21 72
-9 103 -20 19 -36 25 -69 25 -61 0 -91 -27 -115 -103 -97 -315 -268 -600 -501
-841 -124 -128 -207 -197 -350 -293 -546 -364 -1231 -454 -1845 -241 -526 182
-959 558 -1204 1046 -114 228 -164 385 -212 672 -19 113 -17 451 4 585 38 239
107 457 212 660 207 402 548 737 947 929 142 69 172 82 250 107 154 51 233 69
413 94 237 34 624 8 830 -55 73 -23 162 -52 180 -60 11 -5 40 -17 65 -26 97
-39 272 -134 376 -205 308 -209 551 -489 714 -824 115 -238 148 -358 170 -620
13 -152 9 -175 -32 -175 -26 0 -112 23 -183 50 -47 18 -128 32 -187 32 -50 1
-73 -4 -115 -26 -58 -31 -130 -103 -190 -191 -70 -102 -191 -206 -272 -233
-19 -7 -56 -12 -83 -12 -46 0 -53 3 -102 53 -41 41 -60 70 -84 134 -18 45 -32
93 -32 105 0 13 -11 89 -24 170 -34 207 -87 339 -156 386 -31 21 -44 23 -111
20 -64 -4 -82 -9 -121 -36 -100 -69 -180 -184 -293 -422 -98 -206 -177 -330
-210 -330 -25 0 -48 87 -65 250 -33 331 -59 437 -120 501 l-39 42 -70 -5
c-153 -11 -255 -118 -546 -573 -75 -116 -164 -235 -177 -235 -13 0 -7 67 22
225 51 286 57 330 66 445 10 146 -34 221 -130 222 -69 2 -76 -10 -92 -154 -13
-119 -22 -178 -44 -303 -73 -415 -79 -724 -15 -821 17 -26 20 -26 82 -21 117
11 127 21 266 256 207 352 306 497 421 615 37 38 72 66 84 66 53 0 79 -103
122 -495 26 -238 47 -295 124 -340 48 -28 85 -32 124 -11 61 32 108 102 233
350 119 235 154 299 200 366 39 57 103 123 129 132 53 18 86 -47 120 -238 53
-303 120 -451 244 -543 70 -52 131 -66 216 -50 116 23 204 84 294 203 31 41
56 77 56 80 0 13 70 113 96 137 81 73 120 86 279 94 295 14 443 43 491 96 44
50 5 426 -66 634 -253 734 -877 1302 -1630 1483 -105 25 -129 30 -260 48 -116
15 -450 17 -565 2z"/>
</g>
</svg>
